<svg xmlns="http://www.w3.org/2000/svg" version="1.1" xmlns:xlink="http://www.w3.org/1999/xlink" xmlns:svgjs="http://svgjs.dev/svgjs" width="2000" height="2341" viewBox="0 0 2000 2341"><g transform="matrix(1,0,0,1,1.347390905093448,0.9477732793520772)"><svg viewBox="0 0 211 247" data-background-color="#1a1b26" preserveAspectRatio="xMidYMid meet" height="2341" width="2000" xmlns="http://www.w3.org/2000/svg" xmlns:xlink="http://www.w3.org/1999/xlink"><g id="tight-bounds" transform="matrix(1,0,0,1,-0.14214974048735485,-0.09999999999999432)"><svg viewBox="0 0 211.28429948097468 247.2" height="247.2" width="211.28429948097468"><g><svg viewBox="0 0 397.4975999999999 465.0672433369714" height="247.2" width="211.28429948097468"><g><rect width="397.4975999999999" height="16.298534910565696" x="0" y="225.37108931164107" fill="#a9b1d6" opacity="1" stroke-width="0" stroke="transparent" fill-opacity="1" class="rect-qz-0" data-fill-palette-color="primary" rx="1%" id="qz-0" data-palette-color="#a9b1d6"></rect></g><g transform="matrix(1,0,0,1,0.9887999999999693,284.33594597761436)"><svg viewBox="0 0 395.52 180.73129735935706" height="180.73129735935706" width="395.52"><g id="textblocktransform"><svg viewBox="0 0 395.52 180.73129735935706" height="180.73129735935706" width="395.52" id="textblock"><g><svg viewBox="0 0 395.52 180.73129735935706" height="180.73129735935706" width="395.52"><g transform="matrix(1,0,0,1,0,0)"><svg width="395.52" viewBox="1.56 -38.87 85.06 38.87" height="180.73129735935706" data-palette-color="#a9b1d6"><g class="wordmark-text-0" data-fill-palette-color="primary" id="text-0"><path d="M21.17 0L1.56 0 1.56-8.42 5.47-8.42 5.47-30.44 1.56-30.44 1.56-38.87 21.17-38.87 21.17-30.44 17.87-30.44 17.87-23.61 28.13-23.61 28.13-30.44 24.83-30.44 24.83-38.87 44.43-38.87 44.43-30.44 40.53-30.44 40.53-8.42 44.43-8.42 44.43 0 24.83 0 24.83-8.42 28.13-8.42 28.13-15.6 17.87-15.6 17.87-8.42 21.17-8.42 21.17 0ZM80.3 0L53.44 0 53.44-8.42 60.52-8.42 60.52-30.93 56.15-30.93 55.17-22.71 47.12-22.71 47.12-38.87 86.62-38.87 86.62-22.71 78.56-22.71 77.59-30.93 73.22-30.93 73.22-8.42 80.3-8.42 80.3 0Z" fill="#a9b1d6" data-fill-palette-color="primary"></path></g></svg></g></svg></g></svg></g></svg></g><g transform="matrix(1,0,0,1,76.53311999999997,0)"><svg viewBox="0 0 244.43135999999998 182.7047675562335" height="182.7047675562335" width="244.43135999999998"><g><svg xmlns="http://www.w3.org/2000/svg" xmlns:xlink="http://www.w3.org/1999/xlink" version="1.1" x="0" y="0" viewBox="1.1 13.399999999999999 97.80000000000001 73.10242952049867" enable-background="new 0 0 100 100" xml:space="preserve" height="182.7047675562335" width="244.43135999999998" class="icon-icon-0" data-fill-palette-color="accent" id="icon-0"><path d="M1.1 79.9v-4.1h5.4 0.3V33.2c0-3.4 2.7-6.1 6.1-6.1h23.7c-0.5 2-0.8 4.1-0.8 6.3 0 0.7 0 1.3 0.1 2H15v40.4h21.2v0.4c0 1.3 1 2.3 2.3 2.3h11.6c1.3 0 2.3-1 2.3-2.3v-0.4h21.2V58.5H79c1 0 2-0.1 3-0.2v17.4h0.3 5.4v4.1c0 3.7-3 6.7-6.7 6.7h-6.4H14.2 7.8C4.1 86.6 1.1 83.6 1.1 79.9zM40.8 33.4c0-11 9-20 20-20h18.1c11 0 20 9 20 20 0 11-9 20-20 20H65.4l-9.2 9.2c-0.6 0.6-1.7 0.2-1.7-0.7v-9.5C46.5 49.7 40.8 42.3 40.8 33.4zM52.7 33.5c0 1.1 0.2 2.1 0.6 3.1 0.4 1 1 1.9 1.8 2.7 0.8 0.8 1.7 1.4 2.7 1.8 1 0.4 2 0.6 3.1 0.6 1.1 0 2.1-0.2 3.1-0.6 1-0.4 1.9-1 2.7-1.8l0.6-0.6-2.6-2.6-0.6 0.6c-0.9 0.9-2 1.3-3.2 1.3-1.2 0-2.3-0.5-3.2-1.3-0.9-0.9-1.3-2-1.3-3.2s0.5-2.3 1.3-3.2c0.9-0.9 2-1.3 3.2-1.3 1.2 0 2.3 0.5 3.2 1.3l3.2 3.2 5.8 5.8c0.8 0.8 1.7 1.4 2.7 1.8 1 0.4 2 0.6 3.1 0.6 1.1 0 2.1-0.2 3.1-0.6 1-0.4 1.9-1 2.7-1.8 0.8-0.8 1.4-1.7 1.8-2.7 0.4-1 0.6-2 0.6-3.1 0-1.1-0.2-2.1-0.6-3.1-0.4-1-1-1.9-1.8-2.7-0.8-0.8-1.7-1.4-2.7-1.8-1-0.4-2-0.6-3.1-0.6-1.1 0-2.1 0.2-3.1 0.6-1 0.4-1.9 1-2.7 1.8l-0.7 0.7L75 31l0.7-0.7c0.9-0.9 2-1.3 3.2-1.3 1.2 0 2.3 0.5 3.2 1.3 0.9 0.9 1.3 2 1.3 3.2s-0.5 2.3-1.3 3.2c-0.9 0.9-2 1.3-3.2 1.3-1.2 0-2.3-0.5-3.2-1.3l-1.3-1.3-7.7-7.7c-0.8-0.8-1.7-1.4-2.7-1.8-1-0.4-2-0.6-3.1-0.6-1.1 0-2.1 0.2-3.1 0.6-1 0.4-1.9 1-2.7 1.8-0.8 0.8-1.4 1.7-1.8 2.7C52.9 31.4 52.7 32.4 52.7 33.5z" fill="#7aa2f7" data-fill-palette-color="accent"></path></svg></g></svg></g><g></g></svg></g><defs></defs></svg><rect width="211.28429948097468" height="247.2" fill="none" stroke="none" visibility="hidden"></rect></g></svg></g></svg>